<svg width="41" height="51" viewBox="0 0 41 51" fill="none" xmlns="http://www.w3.org/2000/svg">
<path fill-rule="evenodd" clip-rule="evenodd" d="M39.9718 8.14415H0.637893C0.313088 8.14415 0.0500488 7.88171 0.0500488 7.55818C0.0500488 7.23412 0.313088 6.97168 0.637893 6.97168H39.9718C40.2961 6.97168 40.5596 7.23412 40.5596 7.55818C40.5596 7.88171 40.2961 8.14415 39.9718 8.14415Z" fill="#333333"/>
<path fill-rule="evenodd" clip-rule="evenodd" d="M13.8228 7.53863C13.8335 3.96651 16.7445 1.0797 20.3243 1.09085C23.9041 1.10095 26.7975 4.00529 26.7868 7.57741C26.7762 11.149 23.8652 14.0358 20.2854 14.0257C16.7051 14.0146 13.8117 11.1102 13.8228 7.53863Z" fill="white"/>
<path fill-rule="evenodd" clip-rule="evenodd" d="M20.3046 1.6759C17.0624 1.6759 14.4197 4.30294 14.4102 7.53931C14.4102 7.53931 14.4102 7.53931 14.4102 7.53984C14.4054 9.11075 15.014 10.5897 16.1236 11.7032C17.2338 12.8178 18.712 13.4341 20.287 13.4388C20.2929 13.4388 20.2987 13.4388 20.3051 13.4388C23.5468 13.4388 26.1894 10.8123 26.1995 7.57544C26.2091 4.33215 23.5729 1.68653 20.3227 1.6759C20.3168 1.6759 20.3104 1.6759 20.3046 1.6759ZM20.3051 14.6113C20.2971 14.6113 20.2907 14.6113 20.2833 14.6113C18.3946 14.6049 16.622 13.8665 15.2909 12.5299C13.9597 11.1932 13.2297 9.42047 13.2355 7.53612C13.2467 3.64684 16.4282 0.488029 20.3264 0.503966C24.2241 0.515654 27.3859 3.68934 27.3747 7.57915C27.3624 11.4605 24.1927 14.6108 20.3051 14.6113Z" fill="#333333"/>
<path fill-rule="evenodd" clip-rule="evenodd" d="M0.637878 7.55824L3.60479 5.84868L6.5717 4.13965V10.9758L0.637878 7.55824Z" fill="white"/>
<path fill-rule="evenodd" clip-rule="evenodd" d="M1.81252 7.55814L5.9844 9.96045V5.15477L1.81252 7.55814ZM6.57171 11.5622C6.47001 11.5622 6.36884 11.5356 6.27779 11.483L0.343971 8.06548C0.161867 7.96083 0.0500488 7.76745 0.0500488 7.55814C0.0500488 7.3483 0.161867 7.15492 0.343971 7.05027L6.27779 3.6322C6.45989 3.52755 6.68353 3.52755 6.8651 3.6322C7.0472 3.73633 7.15902 3.93023 7.15902 4.13955V10.9757C7.15902 11.1855 7.0472 11.3789 6.8651 11.483C6.77405 11.5356 6.67288 11.5622 6.57171 11.5622Z" fill="#333333"/>
<path fill-rule="evenodd" clip-rule="evenodd" d="M39.9718 7.55824L37.0049 9.26674L34.0385 10.9758V4.13965L39.9718 7.55824Z" fill="white"/>
<path fill-rule="evenodd" clip-rule="evenodd" d="M34.6258 5.15477V9.96045L38.7972 7.55814L34.6258 5.15477ZM34.038 11.5622C33.9368 11.5622 33.8351 11.5356 33.7441 11.483C33.5625 11.3789 33.4507 11.1855 33.4507 10.9757V4.13955C33.4507 3.93023 33.5625 3.73633 33.7441 3.6322C33.9262 3.52755 34.1498 3.52755 34.3319 3.6322L40.2657 7.05027C40.4473 7.15492 40.5596 7.3483 40.5596 7.55814C40.5596 7.76745 40.4473 7.96083 40.2657 8.06548L34.3319 11.483C34.2409 11.5356 34.1391 11.5622 34.038 11.5622Z" fill="#333333"/>
<path fill-rule="evenodd" clip-rule="evenodd" d="M32.128 24.0715V21.2814C32.128 20.6285 32.3123 20.0425 32.6882 19.6165C33.0604 19.1946 33.6243 18.9327 34.3761 18.9327C35.8803 18.9327 36.7813 19.9761 36.7813 21.2814V34.263C36.7813 35.435 36.5853 36.5256 36.3265 37.4558C35.6104 40.0547 35.2147 41.8402 35.1045 44.2197C35.0619 45.0995 35.0971 45.9866 35.1988 46.8616L35.203 46.885C35.2887 47.6473 34.8894 48.3975 34.1413 48.8033C32.9273 49.4722 30.6786 50.2845 26.9503 50.2845C23.0021 50.2845 20.8637 49.2921 19.8179 48.5457C19.2695 48.1589 18.9521 47.5767 18.9521 46.9631V46.9514C18.8621 45.8108 18.7759 45.2827 18.6039 44.7122C17.9969 42.6918 18.1923 42.6568 16.4144 40.2221C15.0587 38.3664 14.5183 34.3055 13.4805 32.6018L8.18935 26.4085C7.40183 25.4586 7.15742 24.1401 8.61905 22.9341C9.97418 21.8158 11.2835 22.6494 11.9022 23.1684L17.9101 28.8937V9.92168C17.9101 9.26877 18.1768 8.67855 18.6039 8.24877C19.0346 7.82324 19.6262 7.55762 20.2801 7.55762C21.5607 7.55762 22.6027 8.57337 22.6458 9.83934V24.0715H22.6496L22.6458 18.2039C22.6458 16.8981 23.7065 15.8398 25.0153 15.8398C26.3241 15.8398 27.3853 16.8981 27.3853 18.2039L27.3891 24.0715V19.6791C27.3891 18.3739 28.4503 17.3151 29.7585 17.3151C30.4124 17.3151 31.004 17.5807 31.4347 18.0068C31.8618 18.4366 32.128 19.0268 32.128 19.6791V24.0715Z" fill="white"/>
<path fill-rule="evenodd" clip-rule="evenodd" d="M10.0498 22.9575C9.51253 22.9575 9.15631 23.2518 8.99338 23.3862C7.74314 24.4179 8.11214 25.3965 8.64195 26.0351L13.9278 32.222C13.948 32.2459 13.9661 32.2714 13.9826 32.298C14.4884 33.1283 14.8633 34.3985 15.26 35.7426C15.7232 37.313 16.2019 38.937 16.8893 39.8778C18.3909 41.9338 18.54 42.3391 18.9303 43.7267C18.9963 43.9616 19.0714 44.2282 19.1662 44.5449C19.3557 45.1717 19.4462 45.7455 19.5378 46.9058C19.5389 46.9212 19.54 46.9371 19.54 46.952C19.54 47.3887 19.7647 47.7908 20.1571 48.0681C21.0128 48.678 23.0287 49.6991 26.9503 49.6991C30.545 49.6991 32.6903 48.9335 33.8575 48.2912C34.3889 48.0028 34.6796 47.4896 34.6189 46.9514C34.5071 46.0016 34.4746 45.0809 34.5177 44.1921C34.6296 41.7691 35.0241 39.9697 35.76 37.3007C36.0481 36.2664 36.1934 35.2448 36.1934 34.2636V21.282C36.1934 20.211 35.4804 19.5193 34.3766 19.5193C33.8325 19.5193 33.4129 19.6829 33.1291 20.0043C32.8586 20.3114 32.7159 20.7528 32.7159 21.282V24.0721C32.7159 24.3956 32.4528 24.6581 32.128 24.6581C31.8038 24.6581 31.5407 24.3956 31.5407 24.0721V19.6797C31.5407 19.2069 31.3549 18.7596 31.0173 18.4196C30.6808 18.087 30.2324 17.9016 29.7585 17.9016C28.7756 17.9016 27.9764 18.699 27.9764 19.6797V24.0721C27.9764 24.3956 27.7133 24.6581 27.3885 24.6581C27.0643 24.6581 26.8012 24.3962 26.8012 24.0726L26.7975 18.205C26.7975 17.2237 25.9983 16.4263 25.0153 16.4263C24.0329 16.4263 23.2337 17.2237 23.2337 18.2044L23.2369 24.0721C23.2369 24.2272 23.1756 24.3765 23.0649 24.4865C22.9552 24.5964 22.8056 24.6581 22.6496 24.6581C22.3253 24.6581 22.0585 24.3956 22.0585 24.0721V9.84043C22.0255 8.89746 21.2449 8.14415 20.2801 8.14415C19.8057 8.14415 19.3573 8.32955 19.0171 8.66584C18.6843 9.00106 18.4979 9.4489 18.4979 9.92224V28.8942C18.4979 29.1285 18.3579 29.341 18.1417 29.4329C17.9255 29.5248 17.6753 29.4797 17.5049 29.3182L11.496 23.5929C10.9225 23.1121 10.4385 22.9575 10.0498 22.9575ZM26.9503 50.8715C22.9137 50.8715 20.6576 49.8664 19.4755 49.0228C18.7705 48.5255 18.3648 47.7743 18.3648 46.9637C18.2823 45.933 18.2035 45.4188 18.0411 44.8822C17.9431 44.5571 17.8664 44.2846 17.7988 44.0434C17.4554 42.8226 17.3739 42.532 15.9394 40.5679C15.1327 39.4624 14.6242 37.7401 14.1328 36.0736C13.7648 34.8283 13.4171 33.65 13.0018 32.9461L7.74208 26.7894C6.81292 25.6685 6.4615 23.9541 8.24473 22.4826C9.44757 21.4902 10.9177 21.5768 12.2803 22.7211L17.3228 27.5242V9.92224C17.3228 9.13759 17.6295 8.39755 18.1864 7.83655C18.7519 7.27715 19.4942 6.97168 20.2801 6.97168C21.8812 6.97168 23.1788 8.2233 23.2332 9.81971V15.8515C23.7289 15.4765 24.3465 15.2539 25.0153 15.2539C26.3721 15.2539 27.5185 16.1703 27.8651 17.4145C28.3789 16.9873 29.0392 16.7291 29.7585 16.7291C30.5445 16.7291 31.2862 17.0357 31.8479 17.5908C32.2164 17.9616 32.4752 18.4084 32.6094 18.8935C33.0827 18.5349 33.6839 18.3468 34.3766 18.3468C36.1104 18.3468 37.3686 19.5814 37.3686 21.282V34.2636C37.3686 35.3505 37.2083 36.4773 36.8931 37.6131C36.1801 40.1971 35.7983 41.9338 35.6918 44.2474C35.6514 45.0735 35.6817 45.9298 35.7824 46.7947C35.9 47.8264 35.3644 48.8071 34.4224 49.3192C33.1371 50.0263 30.7947 50.8715 26.9503 50.8715Z" fill="#333333"/>
</svg>
